{
    "accessors" : [
        {
            "bufferView" : 0,
            "componentType" : 5121,
            "count" : 192,
            "max" : [
                63
            ],
            "min" : [
                0
            ],
            "type" : "SCALAR"
        },
        {
            "bufferView" : 1,
            "componentType" : 5126,
            "count" : 64,
            "max" : [
                0.7356324195861816,
                1.8173902034759521,
                0.7503019571304321
            ],
            "min" : [
                -0.7649199366569519,
                1.7596138715744019,
                -0.7503014802932739
            ],
            "type" : "VEC3"
        },
        {
            "bufferView" : 2,
            "componentType" : 5126,
            "count" : 64,
            "max" : [
                0.10074160248041153,
                0.9949033856391907,
                0.10876797139644623
            ],
            "min" : [
                -0.11682485044002533,
                0.9931333065032959,
                -0.10876797139644623
            ],
            "type" : "VEC3"
        },
        {
            "bufferView" : 3,
            "componentType" : 5126,
            "count" : 64,
            "max" : [
                -0.5740822553634644,
                0.10352712124586105,
                -0.7242725491523743,
                1.0
            ],
            "min" : [
                -0.6844632625579834,
                -0.11353311687707901,
                -0.8142672181129456,
                1.0
            ],
            "type" : "VEC4"
        },
        {
            "bufferView" : 4,
            "componentType" : 5126,
            "count" : 64,
            "max" : [
                0.9812561273574829,
                0.521164745092392
            ],
            "min" : [
                0.4752207100391388,
                0.015119194984436035
            ],
            "type" : "VEC2"
        },
        {
            "bufferView" : 5,
            "componentType" : 5121,
            "count" : 480,
            "max" : [
                96
            ],
            "min" : [
                0
            ],
            "type" : "SCALAR"
        },
        {
            "bufferView" : 6,
            "componentType" : 5126,
            "count" : 97,
            "max" : [
                0.7356276512145996,
                1.9753676652908325,
                0.7503015398979187
            ],
            "min" : [
                -0.7649251818656921,
                1.8052572011947632,
                -0.7503015398979187
            ],
            "type" : "VEC3"
        },
        {
            "bufferView" : 7,
            "componentType" : 5126,
            "count" : 97,
            "max" : [
                0.5814996957778931,
                0.99993896484375,
                0.5880611538887024
            ],
            "min" : [
                -0.5945920944213867,
                0.8040101528167725,
                -0.5880611538887024
            ],
            "type" : "VEC3"
        },
        {
            "bufferView" : 8,
            "componentType" : 5126,
            "count" : 97,
            "max" : [
                0.3581114113330841,
                0.587716817855835,
                -0.7698771357536316,
                1.0
            ],
            "min" : [
                0.16374558210372925,
                -0.5838620662689209,
                -0.9602560997009277,
                1.0
            ],
            "type" : "VEC4"
        },
        {
            "bufferView" : 9,
            "componentType" : 5126,
            "count" : 97,
            "max" : [
                0.9795913696289062,
                0.8593266606330872
            ],
            "min" : [
                0.6516125202178955,
                0.5314053297042847
            ],
            "type" : "VEC2"
        },
        {
            "bufferView" : 10,
            "componentType" : 5121,
            "count" : 288,
            "max" : [
                64
            ],
            "min" : [
                0
            ],
            "type" : "SCALAR"
        },
        {
            "bufferView" : 11,
            "componentType" : 5126,
            "count" : 65,
            "max" : [
                0.7356324195861816,
                1.8173917531967163,
                0.7503020763397217
            ],
            "min" : [
                -0.7649199366569519,
                1.6939473152160645,
                -0.7503015398979187
            ],
            "type" : "VEC3"
        },
        {
            "bufferView" : 12,
            "componentType" : 5126,
            "count" : 65,
            "max" : [
                0.28250983357429504,
                0.99993896484375,
                0.29026153683662415
            ],
            "min" : [
                -0.29798272252082825,
                0.9545579552650452,
                -0.29026153683662415
            ],
            "type" : "VEC3"
        },
        {
            "bufferView" : 13,
            "componentType" : 5126,
            "count" : 65,
            "max" : [
                0.4819319546222687,
                0.29262998700141907,
                -0.8417454957962036,
                1.0
            ],
            "min" : [
                0.4454289674758911,
                -0.28531432151794434,
                -0.8848170042037964,
                1.0
            ],
            "type" : "VEC4"
        },
        {
            "bufferView" : 14,
            "componentType" : 5126,
            "count" : 65,
            "max" : [
                0.3669614791870117,
                0.7111411690711975
            ],
            "min" : [
                0.30304214358329773,
                0.6472278833389282
            ],
            "type" : "VEC2"
        },
        {
            "bufferView" : 15,
            "componentType" : 5123,
            "count" : 2400,
            "max" : [
                416
            ],
            "min" : [
                0
            ],
            "type" : "SCALAR"
        },
        {
            "bufferView" : 16,
            "componentType" : 5126,
            "count" : 417,
            "max" : [
                1.9532814025878906,
                1.8173907995224,
                1.9533451795578003
            ],
            "min" : [
                -1.9532814025878906,
                -1.9533281326293945,
                -1.9533451795578003
            ],
            "type" : "VEC3"
        },
        {
            "bufferView" : 17,
            "componentType" : 5126,
            "count" : 417,
            "max" : [
                0.999969482421875,
                0.8767662644386292,
                0.999969482421875
            ],
            "min" : [
                -0.99993896484375,
                -0.999969482421875,
                -0.999969482421875
            ],
            "type" : "VEC3"
        },
        {
            "bufferView" : 18,
            "componentType" : 5126,
            "count" : 417,
            "max" : [
                1.0,
                0.9976564645767212,
                0.4247489869594574,
                1.0
            ],
            "min" : [
                -0.5692281126976013,
                -0.9975348711013794,
                -0.9574494361877441,
                -1.0
            ],
            "type" : "VEC4"
        },
        {
            "bufferView" : 19,
            "componentType" : 5126,
            "count" : 417,
            "max" : [
                0.6362470984458923,
                0.9876795653253794
            ],
            "min" : [
                0.020911313593387604,
                0.3714490532875061
            ],
            "type" : "VEC2"
        }
    ],
    "asset" : {
        "generator" : "Khronos Blender glTF 2.0 exporter",
        "version" : "2.0"
    },
    "bufferViews" : [
        {
            "buffer" : 0,
            "byteLength" : 192,
            "byteOffset" : 0,
            "target" : 34963
        },
        {
            "buffer" : 0,
            "byteLength" : 768,
            "byteOffset" : 192,
            "target" : 34962
        },
        {
            "buffer" : 0,
            "byteLength" : 768,
            "byteOffset" : 960,
            "target" : 34962
        },
        {
            "buffer" : 0,
            "byteLength" : 1024,
            "byteOffset" : 1728,
            "target" : 34962
        },
        {
            "buffer" : 0,
            "byteLength" : 512,
            "byteOffset" : 2752,
            "target" : 34962
        },
        {
            "buffer" : 0,
            "byteLength" : 480,
            "byteOffset" : 3264,
            "target" : 34963
        },
        {
            "buffer" : 0,
            "byteLength" : 1164,
            "byteOffset" : 3744,
            "target" : 34962
        },
        {
            "buffer" : 0,
            "byteLength" : 1164,
            "byteOffset" : 4908,
            "target" : 34962
        },
        {
            "buffer" : 0,
            "byteLength" : 1552,
            "byteOffset" : 6072,
            "target" : 34962
        },
        {
            "buffer" : 0,
            "byteLength" : 776,
            "byteOffset" : 7624,
            "target" : 34962
        },
        {
            "buffer" : 0,
            "byteLength" : 288,
            "byteOffset" : 8400,
            "target" : 34963
        },
        {
            "buffer" : 0,
            "byteLength" : 780,
            "byteOffset" : 8688,
            "target" : 34962
        },
        {
            "buffer" : 0,
            "byteLength" : 780,
            "byteOffset" : 9468,
            "target" : 34962
        },
        {
            "buffer" : 0,
            "byteLength" : 1040,
            "byteOffset" : 10248,
            "target" : 34962
        },
        {
            "buffer" : 0,
            "byteLength" : 520,
            "byteOffset" : 11288,
            "target" : 34962
        },
        {
            "buffer" : 0,
            "byteLength" : 4800,
            "byteOffset" : 11808,
            "target" : 34963
        },
        {
            "buffer" : 0,
            "byteLength" : 5004,
            "byteOffset" : 16608,
            "target" : 34962
        },
        {
            "buffer" : 0,
            "byteLength" : 5004,
            "byteOffset" : 21612,
            "target" : 34962
        },
        {
            "buffer" : 0,
            "byteLength" : 6672,
            "byteOffset" : 26616,
            "target" : 34962
        },
        {
            "buffer" : 0,
            "byteLength" : 3336,
            "byteOffset" : 33288,
            "target" : 34962
        }
    ],
    "buffers" : [
        {
            "byteLength" : 36624,
            "uri" : "eyeball.bin"
        }
    ],
    "extensionsUsed" : [
        "KHR_materials_unlit"
    ],
    "images" : [
        {
            "name" : "Untitled",
            "uri" : "Untitled.jpg"
        },
        {
            "name" : "Untitled",
            "uri" : "Untitled.jpg"
        },
        {
            "name" : "REF 1",
            "uri" : "REF 1.jpg"
        }
    ],
    "materials" : [
        {
            "emissiveTexture" : {
                "index" : 0
            },
            "name" : "Eye_Iris",
            "normalTexture" : {
                "index" : 0
            },
            "pbrMetallicRoughness" : {
                "baseColorFactor" : [
                    0.03528134875418765,
                    0.12598272749755868,
                    0.299100022004545,
                    1.0
                ],
                "baseColorTexture" : {
                    "index" : 0
                },
                "metallicFactor" : 0.0
            }
        },
        {
            "alphaMode" : "BLEND",
            "name" : "Eye_Tranz.001",
            "normalTexture" : {
                "index" : 0
            },
            "pbrMetallicRoughness" : {
                "baseColorFactor" : [
                    0.6075676054890096,
                    0.6075676054890096,
                    0.6075676054890096,
                    0.17006370425224304
                ],
                "baseColorTexture" : {
                    "index" : 2
                },
                "metallicFactor" : 0.0
            }
        },
        {
            "name" : "Eye_white",
            "normalTexture" : {
                "index" : 0
            },
            "pbrMetallicRoughness" : {
                "baseColorFactor" : [
                    0.41297298093099855,
                    0.41297298093099855,
                    0.41297298093099855,
                    1.0
                ],
                "baseColorTexture" : {
                    "index" : 2
                },
                "metallicFactor" : 0.0
            }
        },
        {
            "extensions" : {
                "KHR_materials_unlit" : {}
            },
            "name" : "EyeBlack",
            "pbrMetallicRoughness" : {
                "baseColorFactor" : [
                    0.0,
                    0.0,
                    0.0,
                    1.0
                ],
                "baseColorTexture" : {
                    "index" : 0
                },
                "metallicFactor" : 0.0,
                "roughnessFactor" : 0.9
            }
        }
    ],
    "meshes" : [
        {
            "name" : "eye_1",
            "primitives" : [
                {
                    "attributes" : {
                        "NORMAL" : 2,
                        "POSITION" : 1,
                        "TANGENT" : 3,
                        "TEXCOORD_0" : 4
                    },
                    "indices" : 0,
                    "material" : 0
                },
                {
                    "attributes" : {
                        "NORMAL" : 7,
                        "POSITION" : 6,
                        "TANGENT" : 8,
                        "TEXCOORD_0" : 9
                    },
                    "indices" : 5,
                    "material" : 1
                },
                {
                    "attributes" : {
                        "NORMAL" : 12,
                        "POSITION" : 11,
                        "TANGENT" : 13,
                        "TEXCOORD_0" : 14
                    },
                    "indices" : 10,
                    "material" : 3
                },
                {
                    "attributes" : {
                        "NORMAL" : 17,
                        "POSITION" : 16,
                        "TANGENT" : 18,
                        "TEXCOORD_0" : 19
                    },
                    "indices" : 15,
                    "material" : 2
                }
            ]
        }
    ],
    "nodes" : [
        {
            "mesh" : 0,
            "name" : "eyeball_1",
            "rotation" : [
                0.7071068286895752,
                0.0,
                -1.5700925641616852e-16,
                0.7071068286895752
            ]
        },
        {
            "name" : "Hemi",
            "rotation" : [
                0.28179240226745605,
                -0.05256549268960953,
                -0.21575133502483368,
                0.9334245920181274
            ],
            "translation" : [
                5.930939674377441,
                6.726874351501465,
                6.107477188110352
            ]
        }
    ],
    "samplers" : [
        {}
    ],
    "scene" : 0,
    "scenes" : [
        {
            "name" : "Scene",
            "nodes" : [
                1,
                0
            ]
        }
    ],
    "textures" : [
        {
            "sampler" : 0,
            "source" : 0
        },
        {
            "sampler" : 0,
            "source" : 0
        },
        {
            "sampler" : 0,
            "source" : 2
        }
    ]
}
