{
    "accessors" : [
        {
            "bufferView" : 0,
            "componentType" : 5123,
            "count" : 23808,
            "max" : [
                15871
            ],
            "min" : [
                0
            ],
            "type" : "SCALAR"
        },
        {
            "bufferView" : 1,
            "componentType" : 5126,
            "count" : 15872,
            "max" : [
                1.010000228881836,
                1.0099999904632568,
                1.0100003480911255
            ],
            "min" : [
                -1.0099998712539673,
                -1.0099999904632568,
                -1.0099999904632568
            ],
            "type" : "VEC3"
        },
        {
            "bufferView" : 2,
            "componentType" : 5126,
            "count" : 15872,
            "max" : [
                0.9966184496879578,
                0.9989494681358337,
                0.996618390083313
            ],
            "min" : [
                -0.9966184496879578,
                -0.9989495277404785,
                -0.9966184496879578
            ],
            "type" : "VEC3"
        },
        {
            "bufferView" : 3,
            "componentType" : 5123,
            "count" : 8448,
            "max" : [
                5631
            ],
            "min" : [
                0
            ],
            "type" : "SCALAR"
        },
        {
            "bufferView" : 4,
            "componentType" : 5126,
            "count" : 5632,
            "max" : [
                1.0099923610687256,
                1.3151695728302002,
                1.0099923610687256
            ],
            "min" : [
                -1.0099923610687256,
                -1.4394479990005493,
                -1.0099923610687256
            ],
            "type" : "VEC3"
        },
        {
            "bufferView" : 5,
            "componentType" : 5126,
            "count" : 5632,
            "max" : [
                0.99985671043396,
                0.9959980249404907,
                0.99985671043396
            ],
            "min" : [
                -0.99985671043396,
                -0.9292289018630981,
                -0.9998569488525391
            ],
            "type" : "VEC3"
        }
    ],
    "asset" : {
        "generator" : "Khronos Blender glTF 2.0 exporter",
        "version" : "2.0"
    },
    "bufferViews" : [
        {
            "buffer" : 0,
            "byteLength" : 47616,
            "byteOffset" : 0,
            "target" : 34963
        },
        {
            "buffer" : 0,
            "byteLength" : 190464,
            "byteOffset" : 47616,
            "target" : 34962
        },
        {
            "buffer" : 0,
            "byteLength" : 190464,
            "byteOffset" : 238080,
            "target" : 34962
        },
        {
            "buffer" : 0,
            "byteLength" : 16896,
            "byteOffset" : 428544,
            "target" : 34963
        },
        {
            "buffer" : 0,
            "byteLength" : 67584,
            "byteOffset" : 445440,
            "target" : 34962
        },
        {
            "buffer" : 0,
            "byteLength" : 67584,
            "byteOffset" : 513024,
            "target" : 34962
        }
    ],
    "buffers" : [
        {
            "byteLength" : 580608,
            "uri" : "pawn.bin"
        }
    ],
    "materials" : [
        {
            "name" : "Material.001",
            "pbrMetallicRoughness" : {
                "baseColorFactor" : [
                    0.40202971103831686,
                    0.800000011920929,
                    0.4045199931341408,
                    1.0
                ],
                "metallicFactor" : 0.0
            }
        },
        {
            "name" : "Material.002",
            "pbrMetallicRoughness" : {
                "baseColorFactor" : [
                    0.5524099432291081,
                    0.800000011920929,
                    0.6093326182563992,
                    1.0
                ],
                "metallicFactor" : 0.0
            }
        }
    ],
    "meshes" : [
        {
            "name" : "Sphere",
            "primitives" : [
                {
                    "attributes" : {
                        "NORMAL" : 2,
                        "POSITION" : 1
                    },
                    "indices" : 0,
                    "material" : 1
                }
            ]
        },
        {
            "name" : "Cylinder",
            "primitives" : [
                {
                    "attributes" : {
                        "NORMAL" : 5,
                        "POSITION" : 4
                    },
                    "indices" : 3,
                    "material" : 0
                }
            ]
        }
    ],
    "nodes" : [
        {
            "name" : "Camera",
            "rotation" : [
                0.483536034822464,
                0.33687159419059753,
                -0.20870360732078552,
                0.7804827094078064
            ],
            "translation" : [
                7.481131553649902,
                5.34366512298584,
                6.5076398849487305
            ]
        },
        {
            "mesh" : 1,
            "name" : "Cylinder",
            "scale" : [
                3.396031141281128,
                3.396031141281128,
                3.396031141281128
            ],
            "translation" : [
                0.0,
                5.295430660247803,
                -0.0
            ]
        },
        {
            "name" : "Lamp",
            "rotation" : [
                0.16907575726509094,
                0.7558802962303162,
                -0.27217137813568115,
                0.570947527885437
            ],
            "scale" : [
                1.0,
                1.0,
                0.9999999403953552
            ],
            "translation" : [
                4.076245307922363,
                5.903861999511719,
                -1.0054539442062378
            ]
        },
        {
            "mesh" : 0,
            "name" : "Sphere",
            "scale" : [
                1.6864147186279297,
                1.6864147186279297,
                1.6864147186279297
            ],
            "translation" : [
                0.0,
                11.887228965759277,
                -0.0
            ]
        }
    ],
    "scene" : 0,
    "scenes" : [
        {
            "name" : "Scene",
            "nodes" : [
                3,
                1,
                2,
                0
            ]
        }
    ]
}
