<?xml version="1.0" encoding="UTF-8"?><svg xmlns="http://www.w3.org/2000/svg" xmlns:xlink="http://www.w3.org/1999/xlink" viewBox="0 0 50 50" version="1.1"><path d="M24 1.938c-4.645 0-7 3.363-7 10v5c0 .37-.102.812-.277 1.167-.059.122-.34.52-.59.868-1.39 1.945-4.465 7.32-5.035 13.164.222-.043.449-.075.703-.075.613 0 2.23 0 4.808 4.254.493.707.75 1.141 1.106 1.735.238.406.531.902 1 1.648l.023.035.028.043c.27.48.55.864.824 1.227.156.21.316.43.473.656.613-.246 1.238-.613 1.609-1.144.488-.813.433-1.778-.145-2.645-.238-.363-.68-.621-1.734-1.226-.633-.36-1.418-.81-1.777-1.118C17.176 34.81 16 33.242 16 32c0-2.656 1.777-6.707 3.203-9.11.817-1.37 1.438-2.43 1.684-3.331.14.097.297.191.515.265l.035.012.04.012c.695.183 1.394.152 1.847.152.942 0 1.621-.453 2.254-.832.621-.379 1.235-.73 1.324-.762.453.856 1.04 1.649 1.649 2.473 1.672 2.25 3.68 6.035 4.273 11.656.778-.41 1.223-.535 2.176-.535.02 0 .043.004.063.004.085-.004.167-.012.253-.012.25 0 .504.016.754.04.59.034 1.38.238 1.844.398.781.23 1.426.64 1.879 1.164.406.004.797.097 1.156.273 0-.652.051-1.61.051-1.867 0-3.3-2.164-7.855-3.793-10.191-.336-.485-.66-.938-.973-1.372-1.441-1.996-2.582-3.574-3.234-6.292-.43-1.766-.488-2.313-.547-2.84-.055-.532-.117-1.086-.473-2.578-.648-3.024-1.449-6.79-7.98-6.79zm-3 6c1.105 0 2 2.011 2 3.671 0 .102-.012.262-.02.407-.074-.004-.148-.016-.226-.016-.285 0-.55.043-.805.11-.12-.637-.488-1.11-.949-1.11-.55 0-1 .672-1 1.5 0 .203.027.395.078.57-.27.203-.476.375-.598.496l-.093.082a3.68 3.68 0 0 1-.192-.492C19.082 12.457 19 11.61 19 11.61c0-1.66.895-3.671 2-3.671zm5 0c1.105 0 2 2.011 2 3.671 0 .618-.133 1.344-.348 1.918a5.481 5.481 0 0 0-.808-.273c.09-.223.156-.473.156-.754 0-.828-.45-1.5-1-1.5s-1 .672-1 1.5v.012a7.816 7.816 0 0 0-.969-.328 8.972 8.972 0 0 1-.031-.575c0-1.66.895-3.671 2-3.671zM22.754 14c.406 0 .996.16 1.535.379.54.219.996.46 1.379.621l.078.035.082.016c.508.12.965.25 1.152.347-.05.43-.101.665-.125.7-.027.043-.168.175-.68.449-.632.226-1.113.594-1.628.906-.567.34-1.14.547-1.223.547-.437 0-1.043-.031-1.285-.082.094.027-.07-.055-.277-.246-.223-.211-.5-.5-.782-.8l-.074-.075-.078-.055c-.32-.226-.57-.43-.691-.574-.125-.148-.137-.191-.137-.29 0-.148-.027-.058.063-.16.09-.105.363-.32.734-.648l.035-.027.031-.035c-.054.058.309-.297.703-.555.395-.258.883-.453 1.188-.453zm12.562 19.996c-.933 0-1.582.277-1.757.5.406.469.656.922.914 1.742.277.61.972.762 1.527.762 1.695 0 2.023-1.02 2.559-1.594 0 0-.141-.156-.141-.308-.14-.305-.555-.61-1.11-.762-.417-.152-1.113-.305-1.39-.305a4.629 4.629 0 0 0-.602-.035zm-23.515.066c-.696 0-1.04.344-1.504.81-.465.46-.957 1.179-1.77 1.757-.714.93-2.851.035-3.464 1.434-.34.765.828 1.773.828 3.503 0 .696-.582 1.157-.696 1.621-.117.575-.234.922 0 1.383.461.692 1.043.926 4.985 1.73 2.086.466 4.058 1.622 5.332 1.735 1.273.113 3.476 0 3.476-3.117.117-1.848-.925-2.309-1.968-4.156-1.16-1.852-1.274-2.196-2.086-3.352-.696-1.156-2.204-3.347-3.133-3.347zm20.433 1.997c-.234.468-.234.824-.234 2.004 0 .945 0 2.007-.117 2.835-.238 2.008-.883 2.91-.883 4.09 0 1.301.355 2.13.828 2.485.352.355.945.59 2.246.59 1.297 0 2.125-.473 2.953-1.297.59-.594 1.063-.828 2.72-2.012 1.296-.828 3.308-1.89 3.66-2.242.238-.239.593-.36.593-1.07 0-.59-.473-.825-.828-.942-.473-.238-1.297-.594-2.008-1.656-.309-.512-.262-1.828-.633-2.63l-.511.552c-.06.062-.11.144-.168.218C39.367 37.641 38.359 39 36 39c-1.547 0-2.797-.723-3.348-1.938l-.05-.109-.04-.121c-.124-.398-.226-.613-.328-.773zm-2.73 6.39c-.953.82-2.41 1.614-4.504 1.614-2.129 0-3.566-.786-4.48-1.59.316.664.527 1.453.468 2.507 0 .38-.035.739-.09 1.083h8.184A7.835 7.835 0 0 1 29 44.987c0-.883.219-1.601.434-2.297.023-.078.046-.164.07-.242z" id="surface1"/><metadata><rdf:RDF xmlns:rdf="http://www.w3.org/1999/02/22-rdf-syntax-ns#" xmlns:rdfs="http://www.w3.org/2000/01/rdf-schema#" xmlns:dc="http://purl.org/dc/elements/1.1/"><rdf:Description about="https://iconscout.com/legal#licenses" dc:title="linux,filled" dc:description="linux,filled" dc:publisher="Iconscout" dc:date="2017-12-11" dc:format="image/svg+xml" dc:language="en"><dc:creator><rdf:Bag><rdf:li>Icons8</rdf:li></rdf:Bag></dc:creator></rdf:Description></rdf:RDF></metadata></svg>