<svg xmlns="http://www.w3.org/2000/svg">
  <symbol id="arrow_fill_down" viewBox="0 0 512 512">
    <g>
      <path d="M263.8 438.1c-2.3 2.9-5.3 4.1-8.2 4.1s-6.5-1.2-8.2-4.1l-242.9-295.8c-2.4-2.9-2.9-7-1.2-11.2 1.8-3.5 5.3-5.9 9.4-5.9h485.9c4.1 0 7.6 2.3 9.4 5.9 1.8 4.1 1.2 8.2-1.2 11.2l-243 295.8z" />
    </g>
  </symbol>

  <symbol id="audio" viewBox="0 0 18 18">
    <title>Audio</title>
    <path d="M11 0v2.06c2.89.86 5 3.54 5 6.71s-2.11 5.85-5 6.71v2.06c4.01-.91 7-4.49 7-8.77C18 4.49 15.01.91 11 0zm2.5 8.77c0-1.77-1.02-3.29-2.5-4.03v8.05c1.48-.73 2.5-2.25 2.5-4.02zM0 5.77v6h4l5 5v-16l-5 5H0z" fill-rule="evenodd"></path>
  </symbol>

  <symbol id="audio_muted" viewBox="0 0 18 18">
    <title>Audio Muted</title>
    <path d="M9 1L6.91 3.09 9 5.18V1zM1.27 0L0 1.27 4.73 6H0v6h4l5 5v-6.73l4.25 4.25c-.67.52-1.42.93-2.25 1.18v2.06c1.38-.31 2.63-.95 3.69-1.81L16.73 18 18 16.73l-9-9L1.27 0zM16 9c0 .94-.2 1.82-.54 2.64l1.51 1.51C17.63 11.91 18 10.5 18 9c0-4.28-2.99-7.86-7-8.77v2.06c2.89.86 5 3.54 5 6.71zm-2.5 0c0-1.77-1.02-3.29-2.5-4.03v2.21l2.45 2.45c.03-.2.05-.41.05-.63z" fill-rule="evenodd"></path>
  </symbol>

  <symbol id="button_chevron_right" viewBox="0 0 8 13">
    <title>Chevron Right</title>
    <g fill="none" stroke="none" stroke-width="1" fill-rule="evenodd">
      <g transform="translate(-2.000000, 4.000000)" stroke="currentColor" stroke-width="2">
        <polyline transform="translate(5.500000, 2.500000) rotate(90.000000) translate(-5.500000, -2.500000)" points="10.5 5 5.5 6.66133815e-16 0.5 5"></polyline>
      </g>
    </g>
  </symbol>

  <symbol id="cart" viewBox="0 0 16 16">
    <title>Cart</title>
    <path d="M 0.009 1.349 C 0.009 1.753 0.347 2.086 0.765 2.086 C 0.765 2.086 0.766 2.086 0.767 2.086 L 0.767 2.09 L 2.289 2.09 L 5.029 7.698 L 4.001 9.507 C 3.88 9.714 3.812 9.958 3.812 10.217 C 3.812 11.028 4.496 11.694 5.335 11.694 L 14.469 11.694 L 14.469 11.694 C 14.886 11.693 15.227 11.36 15.227 10.957 C 15.227 10.552 14.886 10.221 14.469 10.219 L 14.469 10.217 L 5.653 10.217 C 5.547 10.217 5.463 10.135 5.463 10.031 L 5.487 9.943 L 6.171 8.738 L 11.842 8.738 C 12.415 8.738 12.917 8.436 13.175 7.978 L 15.901 3.183 C 15.96 3.08 15.991 2.954 15.991 2.828 C 15.991 2.422 15.65 2.09 15.23 2.09 L 3.972 2.09 L 3.481 1.077 L 3.466 1.043 C 3.343 0.79 3.084 0.612 2.778 0.612 C 2.777 0.612 0.765 0.612 0.765 0.612 C 0.347 0.612 0.009 0.943 0.009 1.349 Z M 3.819 13.911 C 3.819 14.724 4.496 15.389 5.335 15.389 C 6.171 15.389 6.857 14.724 6.857 13.911 C 6.857 13.097 6.171 12.434 5.335 12.434 C 4.496 12.434 3.819 13.097 3.819 13.911 Z M 11.431 13.911 C 11.431 14.724 12.11 15.389 12.946 15.389 C 13.784 15.389 14.469 14.724 14.469 13.911 C 14.469 13.097 13.784 12.434 12.946 12.434 C 12.11 12.434 11.431 13.097 11.431 13.911 Z"></path>
  </symbol>

  <symbol id="cart_mobile" viewBox="0 0 512 512" >
    <title id="Cart">Cart</title>
    <path d="M440.2 328.3c-3.5 13.9-15.7 23.8-30.2 23.8H159.8c-14.5 0-27.3-9.9-30.2-23.8L65.7 69.9H34.4C16.9 69.9 3 55.9 3 38.5S16.9 7.2 34.4 7.2h55.7c14.5 0 27.3 9.9 30.8 23.8l17.4 70.3h355.9c2.9 0 6.4 1.7 8.1 4.1 2.3 2.3 2.9 5.8 1.8 8.7l-63.9 214.2zm-238.6 76c29 0 52.2 23.2 52.2 52.3 0 29-23.2 52.2-52.2 52.2s-52.3-23.2-52.3-52.2 23.3-52.3 52.3-52.3zm167.2 0c29 0 52.2 23.2 52.2 52.3 0 29-23.2 52.2-52.2 52.2s-52.3-23.2-52.3-52.2 23.3-52.3 52.3-52.3z"></path>
  </symbol>

  <symbol id="checkmark" viewBox="0 0 512 512">
    <g>
      <path d="M200.5 447.6c-2.3 1.8-4.7 3-7.6 3-2.9 0-5.3-1.2-7.6-3l-180-179.9c-4.1-4.1-4.1-11.2 0-15.3l74.1-74.1c4.1-4.1 11.2-4.1 15.3 0l98.2 98.8 225.1-225.7c4.1-4.1 11.2-4.1 15.3 0l74.1 74.1c4.1 4.1 4.1 11.2 0 15.3l-306.9 306.8z"></path>
    </g>
  </symbol>

  <symbol id="chevron_down" viewBox="-49 141 512 512">
    <title>Chevron-Down</title>
    <path d="M442.9 233.7l-189.5 189.5c-3.2 3.2-8.7 3.2-11.9 0l-189.5-189.5c-3.2-3.2-3.2-8.7 0-11.9l57.8-57.8c3.2-3.2 8.7-3.2 11.9 0l125.8 125.8 125.8-125.8c3.2-3.2 8.7-3.2 11.9 0l57.8 57.8c1.2 2 2.4 3.6 2.4 5.9-.1 2.5-.9 4-2.5 6z"></path>
  </symbol>

  <symbol id="chevron_left" viewBox="0 0 8 12">
    <g fill="none" stroke="none" stroke-width="1" fill-rule="evenodd">
      <g transform="translate(1.000000, 1.000000)" stroke="currentColor" stroke-width="2">
        <polyline transform="translate(3.500000, 5.507797) rotate(90.000000) translate(-3.500000, -5.507797)"
                  points="-1.5 3 3.5155939 8.0155939 8.5 3.0311879"></polyline>
      </g>
    </g>
  </symbol>

  <symbol id="close" viewBox="0 0 10 10">
    <title>Close</title>
    <path d="M9.888641,1.2053571 C9.962881,1.2797623 10,1.3690471 10,1.4732143 C10,1.5773815 9.962881,1.6666663 9.888641,1.7410714 L6.904232,4.7321429 C6.829992,4.806548 6.792873,4.8958328 6.792873,5 C6.792873,5.1041672 6.829992,5.193452 6.904232,5.2678571 L9.86637,8.2589286 C9.955457,8.3333337 10,8.4226185 10,8.5267857 C10,8.6309529 9.955457,8.7202377 9.86637,8.7946429 L8.797327,9.8883929 C8.723088,9.962798 8.63029,10 8.518931,10 C8.407572,10 8.314774,9.962798 8.240535,9.8883929 L5.278396,6.8973214 C5.204157,6.8229163 5.111359,6.7857143 5,6.7857143 C4.888641,6.7857143 4.795843,6.8229163 4.721604,6.8973214 L1.737194,9.8883929 C1.662954,9.962798 1.573868,10 1.469933,10 C1.365998,10 1.276912,9.962798 1.202673,9.8883929 L0.111359,8.7946429 C0.037119,8.7202377 0,8.6309529 0,8.5267857 C0,8.4226185 0.037119,8.3333337 0.111359,8.2589286 L3.095768,5.2678571 C3.170008,5.193452 3.207127,5.1041672 3.207127,5 C3.207127,4.8958328 3.170008,4.806548 3.095768,4.7321429 L0.111359,1.7410714 C0.037119,1.6666663 0,1.5736613 0,1.4620536 C0,1.3504459 0.037119,1.2574408 0.111359,1.1830357 L1.202673,0.1116071 C1.276912,0.037202 1.36971,0 1.481069,0 C1.592428,0 1.685226,0.037202 1.759465,0.1116071 L4.721604,3.1026786 C4.795843,3.1770837 4.888641,3.2142857 5,3.2142857 C5.111359,3.2142857 5.204157,3.1770837 5.278396,3.1026786 L8.262806,0.1116071 C8.337046,0.037202 8.426132,0 8.530067,0 C8.634002,0 8.723088,0.037202 8.797327,0.1116071 L9.888641,1.2053571 Z" />
  </symbol>

  <symbol id="close_thin" viewBox="0 0 64 64">
    <title>Close</title>
    <g fill="none" stroke="#010101" stroke-miterlimit="10" stroke-width="5">
      <line x1="9.37" x2="54.63" y1="9.37" y2="54.63" />
      <line x1="9.37" x2="54.63" y1="54.63" y2="9.37" />
    </g>
  </symbol>

  <symbol id="collection" viewBox="0 0 11 9">
    <title>Add to Collection</title>
    <polygon points="0 1.18461536 9.05384614 1.18461536 9.05384614 0 0 0"></polygon>
    <polygon points="0 6.26153844 4.52692307 6.26153844 4.52692307 5.07692308 0 5.07692308"></polygon>
    <polygon points="5.92307692 6.26153844 11 6.26153844 11 5.07692308 5.92307692 5.07692308"></polygon>
    <polygon transform="translate(8.461538, 5.669231) rotate(-270.000000) translate(-8.461538, -5.669231) " points="5.92307692 6.26153844 11 6.26153844 11 5.07692308 5.92307692 5.07692308"></polygon>
    <polygon points="0 3.7230769 6.76923077 3.7230769 6.76923077 2.53846154 0 2.53846154"></polygon>
  </symbol>

  <symbol id="dialer" viewBox="0 0 16 16">
    <path d="M3.5 2A1.5 1.5 0 0 1 5 3.5 1.5 1.5 0 0 1 3.5 5 1.5 1.5 0 0 1 2 3.5 1.5 1.5 0 0 1 3.5 2zM8 2a1.5 1.5 0 0 1 1.5 1.5A1.5 1.5 0 0 1 8 5a1.5 1.5 0 0 1-1.5-1.5A1.5 1.5 0 0 1 8 2zM12.5 2A1.5 1.5 0 0 1 14 3.5 1.5 1.5 0 0 1 12.5 5 1.5 1.5 0 0 1 11 3.5 1.5 1.5 0 0 1 12.5 2zM3.5 6.5A1.5 1.5 0 0 1 5 8a1.5 1.5 0 0 1-1.5 1.5A1.5 1.5 0 0 1 2 8a1.5 1.5 0 0 1 1.5-1.5zM8 6.5A1.5 1.5 0 0 1 9.5 8 1.5 1.5 0 0 1 8 9.5 1.5 1.5 0 0 1 6.5 8 1.5 1.5 0 0 1 8 6.5zM12.5 6.5A1.5 1.5 0 0 1 14 8a1.5 1.5 0 0 1-1.5 1.5A1.5 1.5 0 0 1 11 8a1.5 1.5 0 0 1 1.5-1.5zM3.5 11A1.5 1.5 0 0 1 5 12.5 1.5 1.5 0 0 1 3.5 14 1.5 1.5 0 0 1 2 12.5 1.5 1.5 0 0 1 3.5 11zM8 11a1.5 1.5 0 0 1 1.5 1.5A1.5 1.5 0 0 1 8 14a1.5 1.5 0 0 1-1.5-1.5A1.5 1.5 0 0 1 8 11zM12.5 11a1.5 1.5 0 0 1 1.5 1.5 1.5 1.5 0 0 1-1.5 1.5 1.5 1.5 0 0 1-1.5-1.5 1.5 1.5 0 0 1 1.5-1.5z"></path>
  </symbol>

  <symbol id="download_preview" viewBox="0 0 16 16">
    <title>Download Preview</title>
      <path d="M7.11007775,2.12374214 L8.88938839,2.12374214 L8.88938839,7.67667237 L10.431426,6.22573283 L11.6768722,7.3976026 L7.99973307,10.8586259 L4.3225939,7.3976026 L5.56804017,6.22573283 L7.11007775,7.67667237 L7.11007775,2.12374214 Z M15,12.4493235 L15,14.1237421 L1,14.1237421 L1,12.4493235 L15,12.4493235 Z"></path>
  </symbol>

  <symbol id="filters_show" viewBox="0 0 16 16">
    <g fill="#333333"><rect x="0" y="3" width="18" height="2"></rect></g>
    <g fill="#333333"><rect x="0" y="8" width="18" height="2"></rect></g>
    <g fill="#333333"><rect x="0" y="13" width="18" height="2"></rect></g>
    <g><g><circle fill="#333333" cx="4.5" cy="4" r="2.2"></circle><circle fill="#FFFFFF" cx="4.5" cy="4" r="0.8"></circle></g></g>
    <g><g><circle fill="#333333" cx="13.5" cy="9" r="2.2"></circle><circle fill="#FFFFFF" cx="13.5" cy="9" r="0.8"></circle></g></g>
    <g><g><circle fill="#333333" cx="9" cy="14" r="2.2"></circle><circle fill="#FFFFFF" cx="9" cy="14" r="0.8"></circle></g></g>
  </symbol>

  <symbol id="grid" viewBox="0 0 16 16">
    <path d="M1,3.80447821 L1,1 L3.80447821,1 L3.80447821,3.80447821 L1,3.80447821 Z M6.5977609,3.80447821 L6.5977609,1 L9.4022391,1 L9.4022391,3.80447821 L6.5977609,3.80447821 Z M12.1955218,3.80447821 L12.1955218,1 L15,1 L15,3.80447821 L12.1955218,3.80447821 Z M1,9.4022391 L1,6.59706118 L3.80447821,6.59706118 L3.80447821,9.4022391 L1,9.4022391 Z M6.5977609,9.4022391 L6.5977609,6.5977609 L9.4022391,6.5977609 L9.4022391,9.4022391 L6.5977609,9.4022391 Z M12.1955218,9.4022391 L12.1955218,6.59706118 L15,6.59706118 L15,9.4022391 L12.1955218,9.4022391 Z M1,14.9993003 L1,12.1948221 L3.80447821,12.1948221 L3.80447821,14.9993003 L1,14.9993003 Z M6.5977609,14.9993003 L6.5977609,12.1948221 L9.4022391,12.1948221 L9.4022391,14.9993003 L6.5977609,14.9993003 Z M12.1955218,14.9993003 L12.1955218,12.1948221 L15,12.1948221 L15,14.9993003 L12.1955218,14.9993003 Z" />
  </symbol>

  <symbol id="eye" viewBox="0 0 18 12">
    <title>Eye</title>
    <path d="M17.3233 5.75C15.9653 2.34705 12.6568 0.129038 8.99502 0.16667C5.35758 0.145631 2.07603 2.34898 0.716726 5.725C0.684715 5.8132 0.667821 5.90618 0.666756 6C0.666316 6.08856 0.683295 6.17634 0.716726 6.25834C2.07074 9.64091 5.35347 11.8517 8.99502 11.8333C12.6325 11.8544 15.914 9.65103 17.2733 6.275C17.309 6.18783 17.326 6.09416 17.3233 6C17.3368 5.91722 17.3368 5.83279 17.3233 5.75ZM8.99502 8.5C7.61515 8.5 6.49654 7.38072 6.49654 6C6.49654 4.61929 7.61515 3.5 8.99502 3.5C10.3749 3.5 11.4935 4.61929 11.4935 6C11.4935 6.66305 11.2303 7.29893 10.7617 7.76777C10.2932 8.23661 9.65765 8.5 8.99502 8.5Z" />
  </symbol>

  <symbol id="hamburger" viewBox="0 0 512 512">
    <title>Menu</title>
    <path d="M49.6 123.2h411.9c25.2 0 45.8-16 45.8-35.5s-20.6-35.5-45.8-35.5H49.6c-25.1 0-45.8 16-45.8 35.5s20.7 35.5 45.8 35.5zm411.9 97.3H49.6c-25.1 0-45.8 16-45.8 35.5s20.7 35.5 45.8 35.5h411.9c25.2 0 45.8-16 45.8-35.5s-20.5-35.5-45.8-35.5zm0 168.3H49.6c-25.1 0-45.8 16-45.8 35.5s20.7 35.5 45.8 35.5h411.9c25.2 0 45.8-16 45.8-35.5s-20.5-35.5-45.8-35.5z"></path>
  </symbol>

  <symbol id="heart" viewBox="0 0 512 512">
    <title>Toggle Favorite</title>
    <path d="M256 475.8c-4.9 0-9.1-1.7-12.5-5.1l-176.7-170.5c-1.9-1.5-4.5-4-7.8-7.4-3.3-3.4-8.5-9.6-15.7-18.6-7.2-9-13.6-18.2-19.3-27.6-5.7-9.4-10.7-20.9-15.2-34.3-4.3-13.3-6.5-26.3-6.5-38.9 0-41.5 12-74 36-97.4 24-23.4 57.1-35.1 99.4-35.1 11.7 0 23.6 2 35.8 6.1 12.2 4.1 23.5 9.5 34 16.4 10.5 6.9 19.5 13.4 27 19.4 7.5 6 14.7 12.5 21.5 19.3 6.8-6.8 14-13.2 21.5-19.3 7.5-6 16.6-12.5 27-19.4 10.5-6.9 21.8-12.4 34-16.4 12.2-4.1 24.1-6.1 35.8-6.1 42.3 0 75.4 11.7 99.4 35.1 24 23.4 36 55.9 36 97.4 0 41.7-21.6 84.2-64.9 127.4l-176.3 169.9c-3.4 3.4-7.6 5.1-12.5 5.1z"></path>
  </symbol>

  <symbol id="list" viewBox="0 0 16 16">
    <path d="M0,3 L0,1 L2,1 L2,3 L0,3 Z M0,7 L0,5 L2,5 L2,7 L0,7 Z M0,11 L0,9 L2,9 L2,11 L0,11 Z M0,15 L0,13 L2,13 L2,15 L0,15 Z M4,3 L4,1 L16,1 L16,3 L4,3 Z M4,7 L4,5 L16,5 L16,7 L4,7 Z M4,11 L4,9 L16,9 L16,11 L4,11 Z M4,15 L4,13 L16,13 L16,15 L4,15 Z" />
  </symbol>

  <symbol id="person" viewBox="0 0 512 512">
    <title>Person</title>
    <path d="M444.2 355.1c-30.3-13.5-75.3-48.2-142-60.1 17-18.2 29.9-46.8 43.2-80.6 7.7-19.6 6.4-36.3 6.4-60 0-17.6 3.3-45.7-1-61.2-14.7-52.3-51.8-66.8-95.4-66.8-43.5 0-80.7 14.5-95.4 66.9-4.3 15.4-1 43.6-1 61.1 0 23.8-1.3 40.6 6.4 60.2 13.4 34 26.1 62.5 43.1 80.6-66.1 12.2-110.8 46.6-140.9 60.1C5.2 383 4.9 413.4 4.9 413.4v51.7l502.2-.1v-51.7c0 .1-.3-30.4-62.9-58.2z"></path>
  </symbol>

  <symbol id="plus" viewBox="0 0 512 512">
    <title>Plus</title>
    <g>
      <path d="M478.4 200.1c8.6 0 15.9 3 22 9.1s9.1 13.4 9.1 22v47.7c0 8.6-3 15.9-9.1 22s-13.4 9.1-22 9.1h-168.1v167.6c0 9.1-3 16.6-9.1 22.6-6.1 6.1-13.4 9.1-22 9.1h-47.7c-8.6 0-15.9-3-22-9.1-6.1-6-9.1-13.4-9.1-22v-168.2h-167.6c-9 0-16.6-2.9-22.7-8.8-6-5.8-9.1-13.3-9.1-22.3v-47.7c0-8.6 3-15.9 9.1-22 6.1-6 13.4-9.1 22-9.1h168.2v-167.5c0-9.1 3-16.6 8.8-22.7 5.9-6 13.3-9.1 22.4-9.1h47.7c8.6 0 15.9 3.1 22 9.1 6.1 6.1 9.1 13.4 9.1 22v168.2h168.1z"></path>
    </g>
  </symbol>

  <symbol id="price_asc" viewBox="0 0 11 17">
    <title>Sort order</title>
    <polygon fill="#B3B3B3" points="4.1,17.3 -0.7,12.5 0.7,11.1 2.1,12.5 2.1,0 4.1,0"></polygon>
    <polygon fill="#FFFFFF" points="8.3,16.8 6.3,16.8 6.3,-0.6 11.2,4.3 9.7,5.7 8.3,4.3"></polygon>
  </symbol>

  <symbol id="price_desc" viewBox="0 0 11 17">
    <title>Sort order</title>
    <polygon fill="#FFFFFF" points="4.1,17.3 -0.7,12.5 0.7,11.1 2.1,12.5 2.1,0 4.1,0"></polygon>
    <polygon fill="#B3B3B3" points="8.3,16.8 6.3,16.8 6.3,-0.6 11.2,4.3 9.7,5.7 8.3,4.3"></polygon>
  </symbol>

  <symbol id="price_no_sort" viewBox="0 0 11 17">
    <title>Sort order</title>
    <polygon fill="#B3B3B3" points="4.1,17.3 -0.7,12.5 0.7,11.1 2.1,12.5 2.1,0 4.1,0"></polygon>
    <polygon fill="#B3B3B3" points="8.3,16.8 6.3,16.8 6.3,-0.6 11.2,4.3 9.7,5.7 8.3,4.3"></polygon>
  </symbol>

  <symbol id="sash_sale" viewBox="0 0 512 512">
    <title>Sale</title>
    <path d="M0 512V0h512" fill="#6ca12b"/><path d="M139 268l80-80c5-5 7-10 7-16v-68a14 14 0 00-4-10 14 14 0 00-10-4h-68l-8 2-8 5-80 80c-2 2-4 6-4 10 0 3 2 7 4 10l71 70a14 14 0 0010 5l5-1 5-3zm46-149c2 0 5 0 7 2l4 5 1 8c-1 2-2 5-4 6-1 2-4 3-6 4l-7-1a13 13 0 01-8-12l3-9c3-2 6-3 10-3z" fill="#fff"/>
  </symbol>

  <symbol id="sash_trending" viewBox="0 0 512 512">
    <title>Trending</title>
    <path fill="#0084B4" d="M0 511.5V0h511.5"/><path fill="#FFF" d="M149.4 166h34.3L86.4 274l34.3-73.6H86.3l97.3-108-34.2 73.6z"/>
  </symbol>

  <symbol id="search" viewBox="0 0 512 512">
    <title>Search</title>
    <path d="M507.5 469.3c0 10.5-3.8 19.5-11.5 27.2s-16.7 11.5-27.2 11.5c-10.9 0-20-3.8-27.2-11.5l-103.7-103.4c-36.1 25-76.3 37.5-120.6 37.5-28.8 0-56.4-5.6-82.7-16.8s-49-26.3-68-45.3-34.2-41.7-45.3-68c-11.2-26.3-16.8-53.9-16.8-82.7s5.6-56.4 16.8-82.7 26.3-49 45.3-68 41.7-34.2 68-45.3c26.3-11.2 53.9-16.8 82.7-16.8s56.4 5.6 82.7 16.8c26.3 11.2 49 26.3 68 45.3s34.2 41.7 45.3 68c11.2 26.3 16.8 53.9 16.8 82.7 0 44.3-12.5 84.5-37.5 120.6l103.7 103.7c7.5 7.5 11.2 16.5 11.2 27.2zm-154.8-251.5c0-37.3-13.2-69.2-39.8-95.7-26.5-26.5-58.4-39.8-95.7-39.8s-69.2 13.3-95.7 39.8-39.8 58.4-39.8 95.7 13.2 69.2 39.8 95.7c26.5 26.5 58.4 39.8 95.7 39.8s69.2-13.2 95.7-39.8c26.6-26.5 39.8-58.4 39.8-95.7z"></path>
  </symbol>

  <symbol id="star_full" viewBox="0 0 16 16">
    <title>Star-Full</title>
    <path fill="#F9BF00" d="M15,6.42527246 C15,6.55455774 14.9269858,6.6960766 14.7809847,6.84853675 L11.7271493,9.97160064 L12.4504175,14.3824632 C12.4559497,14.4236438 12.459017,14.4828014 12.459017,14.5593617 C12.459017,14.6828748 12.4295758,14.7870899 12.370666,14.8719783 C12.3117835,14.9575271 12.2258973,15 12.1142398,15 C12.0074845,15 11.8952245,14.9646203 11.7774322,14.8944926 L7.99967135,12.8122586 L4.22254044,14.8944926 C4.09861343,14.9646203 3.98695588,15 3.88573284,15 C3.76794056,15 3.67961689,14.9575558 3.62070706,14.8719783 C3.56182461,14.7870612 3.532356,14.6828461 3.532356,14.5593617 C3.532356,14.523982 3.53788821,14.4647957 3.54892525,14.3824632 L4.27282331,9.97160064 L1.21041574,6.84853675 C1.06991948,6.68964393 1,6.54878557 1,6.42527246 C1,6.20785377 1.15703812,6.07210709 1.47114173,6.01938213 L5.69487547,5.37548281 L7.58743945,1.3615221 C7.6941947,1.12029677 7.8315962,1 7.99969874,1 C8.1684038,1 8.30520278,1.12029677 8.41195803,1.3615221 L10.3051245,5.37548281 L14.5288583,6.01938213 C14.8423594,6.07210709 15,6.20785377 15,6.42527246 L15,6.42527246 Z"></path>
  </symbol>

  <symbol id="star_empty" viewBox="0 0 16 16">
    <title>Star-Empty</title>
    <path stroke="#F9BF00" fill="none" d="M14.4149055,6.50778699 L9.96650226,5.82963728 L9.85289956,5.58877268 L7.99978321,1.65939651 L6.0335367,5.82963134 L5.77022882,5.86977207 L1.5776195,6.50886977 L4.8072668,9.80248587 L4.76622274,10.0525759 L4.04940067,14.4189972 L7.99965123,12.2413268 L8.24102803,12.3743694 L11.949704,14.4188336 L11.1928076,9.80288899 L11.3696559,9.62203171 L14.4149055,6.50778699 Z M4.03255885,14.588468 C4.03252835,14.5884236 4.03249783,14.5883793 4.03246729,14.5883351 Z M3.88714866,14.5000131 C3.88667315,14.5000044 3.88620118,14.5 3.88573284,14.5 C3.88671005,14.5 3.88860849,14.4996521 3.89145519,14.4988551 Z"></path>
  </symbol>

  <symbol id="star_half_empty" viewBox="0 0 16 16">
    <title>Star-Half-Empty</title>
      <path fill="none" d="M14.4149055,6.50778699 L9.96650226,5.82963728 L9.85289956,5.58877268 L7.99978321,1.65939651 L6.0335367,5.82963134 L5.77022882,5.86977207 L1.5776195,6.50886977 L4.8072668,9.80248587 L4.76622274,10.0525759 L4.04940067,14.4189972 L7.99965123,12.2413268 L8.24102803,12.3743694 L11.949704,14.4188336 L11.1928076,9.80288899 L11.3696559,9.62203171 L14.4149055,6.50778699 Z M4.03255885,14.588468 C4.03252835,14.5884236 4.03249783,14.5883793 4.03246729,14.5883351 Z M3.88714866,14.5000131 C3.88667315,14.5000044 3.88620118,14.5 3.88573284,14.5 C3.88671005,14.5 3.88860849,14.4996521 3.89145519,14.4988551 Z" stroke="#F9BF00"></path>
      <path d="M7.99967135,12.8122586 L4.22254044,14.8944926 C4.09861343,14.9646203 3.98695588,15 3.88573284,15 C3.76794056,15 3.67961689,14.9575558 3.62070706,14.8719783 C3.56182461,14.7870612 3.532356,14.6828461 3.532356,14.5593617 C3.532356,14.523982 3.53788821,14.4647957 3.54892525,14.3824632 L4.27282331,9.97160064 L1.21041574,6.84853675 C1.06991948,6.68964393 1,6.54878557 1,6.42527246 C1,6.20785377 1.15703812,6.07210709 1.47114173,6.01938213 L5.69487547,5.37548281 L7.58743945,1.3615221 C7.6941947,1.12029677 7.8315962,1 7.99969874,1 C8.1684038,1 7.99967135,12.8122586 7.99967135,12.8122586 Z" fill="#F9BF00"></path>
  </symbol>

  <symbol id="envato_mobile_login" viewBox="0 0 512 512">
    <title>Login</title>
    <g><path fill="#dedede" d="M129.4 283H93.8c-.2 1.4-.5 2.7-.5 4 0 47.2-.1 94.4 0 141.6 0 12.7 7.6 19.7 20.4 19.7h316.6c13.2 0 20.6-7.4 20.6-20.7V44.9c0-8.9-3.9-14.8-12-18.5-3.8-1.7-7.4-4-11.1-6-46.5-26.4-93-52.8-139.6-79.1-14.4-8.1-28.5.4-28.5 16.9v67.2H115.1c-15.3 0-21.8 6.4-21.9 21.6-.1 33.6 0 67.1 0 100.7v13.5h36.7V61.9h129.5c.1 2 .2 3.7.2 5.3 0 90.6.1 181.1-.1 271.7 0 10.2 3.9 16.9 12.7 21.8 28.3 15.8 56.4 31.9 84.5 47.9 1.2.7 2.2 1.5 4.1 2.9H129.3c.1-43.2.1-85.7.1-128.5zm13.9-80.4H76.1c-7.2 0-14.4-.1-21.6 0-12.3.2-22.2 7.8-23.1 17.6-1 10.8 7.1 20 20.1 21.2 9.5.9 19.3.5 28.9.5H143c.1 2 .3 3.7.3 5.4 0 9.8.1 19.6 0 29.3 0 4 1.2 7.4 5.7 9.3 4.3 1.8 8.1.6 11.8-1.6l88.5-54.3c7.8-4.8 7.9-10.8.1-15.6-29.5-18.2-59-36.2-88.4-54.4-3.8-2.4-7.7-3.5-12.2-1.6-4.3 1.9-5.4 5.2-5.4 9v29.8c-.1 1.7-.1 3.3-.1 5.4z" /></g>
  </symbol>

  <symbol id="envato_mobile_menu_logo" viewBox="0 0 512 512">
    <title>Envato</title>
    <g><path fill="#dedede" d="M414 4C399-4.3 356.1.8 304.5 16.8c-90.2 61.7-166.4 152.6-171.7 298.5-1 3.5-9.9-.5-11.6-1.5-24.4-46.7-34-95.9-13.7-166.9 3.8-6.3-8.6-14.1-10.8-11.9-4.5 4.5-23.1 24.3-35.5 45.8C-.1 287.1 40 423.3 147.3 483c107.2 59.7 242.6 21.2 302.3-86.1C518.7 273.1 454.5 26.6 414 4z" /></g>
  </symbol>

  <symbol id="user" preserveAspectRatio="xMidYMid meet" height="16px" width="16px" viewBox="0 0 16 16">
    <title>User</title>
    <path d="M 8 0 C 3.591 0 0 3.589 0 8 C 0 12.41 3.59 16 8 16 C 12.41 16 16 12.411 16 8 C 16 3.591 12.41 0 8 0 M 12.786 12.624 C 12.768 12.624 12.732 12.607 12.714 12.607 C 11.25 12.25 10.054 11.697 10.054 11.697 C 9.91 11.5 9.821 11.161 9.803 10.929 C 10.125 10.482 10.304 9.964 10.375 9.5 C 10.41 9.518 10.446 9.536 10.481 9.536 C 10.624 9.536 10.803 9.357 10.999 8.643 C 11.213 7.911 11.089 7.66 10.91 7.589 C 11.499 4.767 10.16 4.678 10.16 4.678 C 10.16 4.678 9.965 4.286 9.429 3.999 C 9.126 3.821 8.715 3.659 8.197 3.659 C 8.107 3.659 8.036 3.659 7.946 3.678 C 7.732 3.695 7.535 3.73 7.356 3.785 C 7.124 3.874 6.892 3.981 6.696 4.124 C 6.446 4.285 6.232 4.463 6.017 4.695 C 5.695 5.034 5.41 5.444 5.286 5.98 C 5.161 6.426 5.178 6.927 5.339 7.427 L 5.286 7.427 C 5.053 7.427 4.821 7.605 5.071 8.498 C 5.267 9.194 5.446 9.391 5.59 9.391 C 5.661 9.89 5.84 10.479 6.214 10.961 C 6.179 11.158 6.125 11.443 6.001 11.641 C 6.001 11.641 4.751 12.248 3.287 12.606 C 3.269 12.606 3.233 12.624 3.215 12.624 C 2.054 11.427 1.34 9.801 1.34 7.998 C 1.34 4.32 4.322 1.337 8.001 1.337 C 11.679 1.337 14.662 4.319 14.662 7.998 C 14.661 9.803 13.947 11.428 12.786 12.624"></path>
  </symbol>

  <symbol id="stars_5.0" preserveAspectRatio="xMidYMid meet" height="15px" width="75px" viewBox="0 0 16 16">
    <title>5 star rating</title>
    <svg x="-32" width='16px' height='16px'><use href='#star_full'></use></svg>
    <svg x="-16" width='16px' height='16px'><use href='#star_full'></use></svg>
    <svg x="0" width='16px' height='16px'><use href='#star_full'></use></svg>
    <svg x="16" width='16px' height='16px'><use href='#star_full'></use></svg>
    <svg x="32" width='16px' height='16px'><use href='#star_full'></use></svg>
  </symbol>

  <symbol id="stars_4.5" preserveAspectRatio="xMidYMid meet" height="15px" width="75px" viewBox="0 0 16 16">
    <title>4.5 star rating</title>
    <svg x="-32" width='16px' height='16px'><use href='#star_full'></use></svg>
    <svg x="-16" width='16px' height='16px'><use href='#star_full'></use></svg>
    <svg x="0" width='16px' height='16px'><use href='#star_full'></use></svg>
    <svg x="16" width='16px' height='16px'><use href='#star_full'></use></svg>
    <svg x="32" width='16px' height='16px'><use href='#star_half_empty'></use></svg>
  </symbol>

  <symbol id="stars_4.0" preserveAspectRatio="xMidYMid meet" height="15px" width="75px" viewBox="0 0 16 16">
    <title>4 star rating</title>
    <svg x="-32" width='16px' height='16px'><use href='#star_full'></use></svg>
    <svg x="-16" width='16px' height='16px'><use href='#star_full'></use></svg>
    <svg x="0" width='16px' height='16px'><use href='#star_full'></use></svg>
    <svg x="16" width='16px' height='16px'><use href='#star_full'></use></svg>
    <svg x="32" width='16px' height='16px'><use href='#star_empty'></use></svg>
  </symbol>

  <symbol id="stars_3.5" preserveAspectRatio="xMidYMid meet" height="15px" width="75px" viewBox="0 0 16 16">
    <title>3.5 star rating</title>
    <svg x="-32" width='16px' height='16px'><use href='#star_full'></use></svg>
    <svg x="-16" width='16px' height='16px'><use href='#star_full'></use></svg>
    <svg x="0" width='16px' height='16px'><use href='#star_full'></use></svg>
    <svg x="16" width='16px' height='16px'><use href='#star_half_empty'></use></svg>
    <svg x="32" width='16px' height='16px'><use href='#star_empty'></use></svg>
  </symbol>

  <symbol id="stars_3.0" preserveAspectRatio="xMidYMid meet" height="15px" width="75px" viewBox="0 0 16 16">
    <title>3 star rating</title>
    <svg x="-32" width='16px' height='16px'><use href='#star_full'></use></svg>
    <svg x="-16" width='16px' height='16px'><use href='#star_full'></use></svg>
    <svg x="0" width='16px' height='16px'><use href='#star_full'></use></svg>
    <svg x="16" width='16px' height='16px'><use href='#star_empty'></use></svg>
    <svg x="32" width='16px' height='16px'><use href='#star_empty'></use></svg>
  </symbol>

  <symbol id="stars_2.5" preserveAspectRatio="xMidYMid meet" height="15px" width="75px" viewBox="0 0 16 16">
    <title>2.5 star rating</title>
    <svg x="-32" width='16px' height='16px'><use href='#star_full'></use></svg>
    <svg x="-16" width='16px' height='16px'><use href='#star_full'></use></svg>
    <svg x="0" width='16px' height='16px'><use href='#star_half_empty'></use></svg>
    <svg x="16" width='16px' height='16px'><use href='#star_empty'></use></svg>
    <svg x="32" width='16px' height='16px'><use href='#star_empty'></use></svg>
  </symbol>

  <symbol id="stars_2.0" preserveAspectRatio="xMidYMid meet" height="15px" width="75px" viewBox="0 0 16 16">
    <title>2 star rating</title>
    <svg x="-32" width='16px' height='16px'><use href='#star_full'></use></svg>
    <svg x="-16" width='16px' height='16px'><use href='#star_full'></use></svg>
    <svg x="0" width='16px' height='16px'><use href='#star_empty'></use></svg>
    <svg x="16" width='16px' height='16px'><use href='#star_empty'></use></svg>
    <svg x="32" width='16px' height='16px'><use href='#star_empty'></use></svg>
  </symbol>

  <symbol id="stars_1.5" preserveAspectRatio="xMidYMid meet" height="15px" width="75px" viewBox="0 0 16 16">
    <title>1.5 star rating</title>
    <svg x="-32" width='16px' height='16px'><use href='#star_full'></use></svg>
    <svg x="-16" width='16px' height='16px'><use href='#star_half_empty'></use></svg>
    <svg x="0" width='16px' height='16px'><use href='#star_empty'></use></svg>
    <svg x="16" width='16px' height='16px'><use href='#star_empty'></use></svg>
    <svg x="32" width='16px' height='16px'><use href='#star_empty'></use></svg>
  </symbol>

  <symbol id="stars_1.0" preserveAspectRatio="xMidYMid meet" height="15px" width="75px" viewBox="0 0 16 16">
    <title>1 star rating</title>
    <svg x="-32" width='16px' height='16px'><use href='#star_full'></use></svg>
    <svg x="-16" width='16px' height='16px'><use href='#star_empty'></use></svg>
    <svg x="0" width='16px' height='16px'><use href='#star_empty'></use></svg>
    <svg x="16" width='16px' height='16px'><use href='#star_empty'></use></svg>
    <svg x="32" width='16px' height='16px'><use href='#star_empty'></use></svg>
  </symbol>

  <symbol id="stars_0.5" preserveAspectRatio="xMidYMid meet" height="15px" width="75px" viewBox="0 0 16 16">
    <title>0.5 star rating</title>
    <svg x="-32" width='16px' height='16px'><use href='#star_half'></use></svg>
    <svg x="-16" width='16px' height='16px'><use href='#star_empty'></use></svg>
    <svg x="0" width='16px' height='16px'><use href='#star_empty'></use></svg>
    <svg x="16" width='16px' height='16px'><use href='#star_empty'></use></svg>
    <svg x="32" width='16px' height='16px'><use href='#star_empty'></use></svg>
  </symbol>

  <symbol id="stars_0.0" preserveAspectRatio="xMidYMid meet" height="15px" width="75px" viewBox="0 0 16 16">
    <title>0.0 star rating</title>
    <svg x="-32" width='16px' height='16px'><use href='#star_empty'></use></svg>
    <svg x="-16" width='16px' height='16px'><use href='#star_empty'></use></svg>
    <svg x="0" width='16px' height='16px'><use href='#star_empty'></use></svg>
    <svg x="16" width='16px' height='16px'><use href='#star_empty'></use></svg>
    <svg x="32" width='16px' height='16px'><use href='#star_empty'></use></svg>
  </symbol>

  <symbol id="arrow_thin" preserveAspectRatio="xMidYMid meet" height="11px" width="24px" viewBox="0 0 24 11">
    <title>Arrow</title>
    <g transform="translate(-1461.000000, -657.000000)">
      <g transform="translate(110.000000, 610.000000)">
        <path d="M1372.9283,52.5899501 C1372.93611,52.54366 1372.94227,52.4965282 1372.94227,52.4477132 C1372.94227,52.438876 1372.9398,52.4308805 1372.9398,52.4220433 L1373.01582,52.5003156 L1372.9283,52.5899501 Z M1374.75922,51.9052775 L1370.21068,47.2468104 C1369.89019,46.9177299 1369.36918,46.9177299 1369.04869,47.2468104 C1368.72779,47.5750493 1368.72779,48.108227 1369.04869,48.4368867 L1372.14556,51.6086 C1372.13693,51.6081792 1372.12912,51.6060751 1372.12049,51.6060751 L1351.82178,51.6060751 C1351.36816,51.6060751 1351,51.983129 1351,52.4477132 C1351,52.9127183 1351.36816,53.2893514 1351.82178,53.2893514 L1372.12049,53.2893514 C1372.16816,53.2893514 1372.21418,53.2830391 1372.25937,53.2750435 L1369.04869,56.5633237 C1368.72779,56.8919834 1368.72779,57.4247403 1369.04869,57.7534 C1369.20935,57.9179403 1369.41931,58 1369.62969,58 C1369.84006,58 1370.05044,57.9179403 1370.21068,57.7534 L1374.75922,53.0953538 C1374.9133,52.9375466 1375,52.7233497 1375,52.5003156 C1375,52.2768607 1374.9133,52.0630846 1374.75922,51.9052775 L1374.75922,51.9052775 Z" />
      </g>
    </g>
  </symbol>

  <symbol id="genre" preserveAspectRatio="xMidYMid meet" height="26px" width="26px" viewBox="0 0 26 26">
    <title>Genre</title>
    <g fill="none">
      <rect x="1.7" y="15.8466" width="8.36516" height="8.4534" rx="4.18258" stroke="currentColor" stroke-width="2.6" />
      <rect x="15.9349" y="15.8466" width="8.36516" height="8.4534" rx="4.18258" stroke="currentColor" stroke-width="2.6" />
      <rect x="1.7" y="1.7" width="8.36516" height="8.4534" rx="4.18258" stroke="currentColor" stroke-width="2.6" />
      <rect x="15.9349" y="1.7" width="8.36516" height="8.4534" rx="4.18258" stroke="currentColor" stroke-width="2.6" />
    </g>
  </symbol>

  <symbol id="mood" preserveAspectRatio="xMidYMid meet" height="26px" width="26px" viewBox="0 0 26 26">
    <title>Mood</title>
    <g fill="none">
      <path
        d="M2 13C2 6.92487 6.92487 2 13 2H21.5556C22.9056 2 24 3.09442 24 4.44444V13C24 19.0751 19.0751 24 13 24V24C6.92487 24 2 19.0751 2 13V13Z"
        stroke="currentColor"
        stroke-width="2.6"
      />
      <path
        d="M10.2102 17.3214C14.4467 18.2457 16.1478 17.5091 17.9251 13.8768"
        stroke="currentColor"
        stroke-width="2.6"
        stroke-linecap="round"
        stroke-linejoin="round"
      />
    </g>
  </symbol>

  <symbol id="fullscreen" fill="currentColor" preserveAspectRatio="xMidYMid meet" height="14" width="14" viewBox="2 3 19 19" class="s3ESh">
    <title>Fullscreen</title>
    <path d="M8.979 4a1 1 0 0 1-1 1H4v4a1 1 0 1 1-2 0V4a1 1 0 0 1 1-1h4.979a1 1 0 0 1 1 1zM20 3h-4.979a1 1 0 1 0 0 2H19v4a1 1 0 1 0 2 0V4a1 1 0 0 0-1-1zM7.979 20H4v-4a1 1 0 1 0-2 0v5a1 1 0 0 0 1 1h4.979a1 1 0 1 0 0-2zM20 15a1 1 0 0 0-1 1v4h-3.979a1 1 0 1 0 0 2H20a1 1 0 0 0 1-1v-5a1 1 0 0 0-1-1z"></path>
  </symbol>

  <symbol id="exist_fullscreen" fill="currentColor" preserveAspectRatio="xMidYMid meet" viewBox="3.021 2 18.958 19">
    <title>Exist fullscreen</title>
    <path d="M9 9H4.021a1 1 0 1 1 0-2h4V3C8 2.448 8.447 2 9 2s1 .448 1 1v5a1 1 0 0 1-1 1zm12.979-1a1 1 0 0 0-1-1H17V3a1 1 0 1 0-2 0v5a1 1 0 0 0 1 1h4.979a1 1 0 0 0 1-1zM10 20v-5a1 1 0 0 0-1-1H4.021a1 1 0 1 0 0 2H8v4a1 1 0 1 0 2 0zm7 0v-4h3.979a1 1 0 1 0 0-2H16a1 1 0 0 0-1 1v5a1 1 0 1 0 2 0z"></path>
  </symbol>

  <symbol id="play" fill="currentColor" preserveAspectRatio="xMidYMid meet" viewBox="0 0 18 18">
    <title>Play</title>
    <path d="M14.5 8.9l-13 7c-.1.1-.3.1-.5.1s-.4 0-.5-.1c-.3-.2-.5-.5-.5-.9V1C0 .6.2.3.5.1c.3-.2.7-.2 1 0l13 7c.3.2.5.5.5.9.1.4-.1.7-.5.9"></path>
  </symbol>

  <symbol id="pause" fill="currentColor" preserveAspectRatio="xMidYMid meet" viewBox="7 7 10 10">
    <title>Pause</title>
    <path d="M17 7.5v9c0 .28-.22.5-.5.5h-3c-.28 0-.5-.22-.5-.5v-9c0-.28.22-.5.5-.5h3c.28 0 .5.22.5.5zM11 7.5v9c0 .28-.22.5-.5.5h-3c-.28 0-.5-.22-.5-.5v-9c0-.28.22-.5.5-.5h3c.28 0 .5.22.5.5z"></path>
  </symbol>

  <symbol id="cog" fill="currentColor" preserveAspectRatio="xMidYMid meet" viewBox="0 0 24 24">
    <title>Cog</title>
    <path d="M21 14.7354L20.2 14.0741C19.7149 13.6707 19.4481 13.0617 19.48 12.4309C19.48 12.2906 19.48 12.1403 19.48 12C19.48 11.8597 19.48 11.7094 19.48 11.5691C19.4481 10.9383 19.7149 10.3293 20.2 9.92587L21 9.26455C21.3795 8.95612 21.481 8.41797 21.24 7.99202L20.08 5.98803C19.8341 5.56962 19.3242 5.38806 18.87 5.55717L17.87 5.91789C17.2798 6.13888 16.6202 6.06834 16.09 5.72751C15.8549 5.56478 15.6075 5.42072 15.35 5.29665C14.7873 5.0075 14.3942 4.46873 14.29 3.84376L14.12 2.84176C14.0407 2.35173 13.6153 1.9937 13.12 2.00008H10.82C10.3246 1.9937 9.89919 2.35173 9.81996 2.84176L9.64996 3.84376C9.55444 4.46084 9.1773 4.99804 8.62996 5.29665C8.37246 5.42072 8.12504 5.56478 7.88996 5.72751C7.35967 6.06834 6.7001 6.13888 6.10996 5.91789L5.10996 5.55717C4.66151 5.39911 4.16399 5.57925 3.91996 5.98803L2.75996 7.99202C2.51888 8.41797 2.62038 8.95612 2.99996 9.26455L3.79996 9.92587C4.28501 10.3293 4.55183 10.9383 4.51996 11.5691C4.51996 11.7094 4.51996 11.8597 4.51996 12C4.51996 12.1403 4.51996 12.2906 4.51996 12.4309C4.55183 13.0617 4.28501 13.6707 3.79996 14.0741L2.99996 14.7354C2.62038 15.0439 2.51888 15.582 2.75996 16.008L3.91996 18.012C4.16583 18.4304 4.67571 18.6119 5.12996 18.4428L6.12996 18.0821C6.7201 17.8611 7.37967 17.9317 7.90996 18.2725C8.14504 18.4352 8.39246 18.5793 8.64996 18.7034C9.21266 18.9925 9.60573 19.5313 9.70996 20.1562L9.87996 21.1582C9.95919 21.6483 10.3846 22.0063 10.88 21.9999H13.18C13.6754 22.0063 14.1007 21.6483 14.18 21.1582L14.35 20.1562C14.4542 19.5313 14.8473 18.9925 15.41 18.7034C15.6675 18.5793 15.9149 18.4352 16.15 18.2725C16.6802 17.9317 17.3398 17.8611 17.93 18.0821L18.93 18.4428C19.3665 18.5797 19.8401 18.4022 20.08 18.012L21.24 16.008C21.481 15.582 21.3795 15.0439 21 14.7354ZM12 15.006C10.3431 15.006 8.99996 13.6602 8.99996 12C8.99996 10.3398 10.3431 8.99401 12 8.99401C13.6568 8.99401 15 10.3398 15 12C15 12.7972 14.6839 13.5618 14.1213 14.1256C13.5587 14.6893 12.7956 15.006 12 15.006Z"></path>
  </symbol>

 <symbol id="open_in_new" fill="currentColor" preserveAspectRatio="xMidYMid meet" viewBox="0 0 24 24">
     <title>Open in New</title>
      <path id="Icon-color" d="M21 14.5V19C21 20.1046 20.1046 21 19 21H5C3.89543 21 3 20.1046 3 19V5C3 3.89543 3.89543 3 5 3H9.5C9.77614 3 10 3.22386 10 3.5V4.5C10 4.77614 9.77614 5 9.5 5H5V19H19V14.5C19 14.2239 19.2239 14 19.5 14H20.5C20.7761 14 21 14.2239 21 14.5ZM20.78 3.5L20.51 3.23C20.376 3.09042 20.1933 3.00802 20 3H13.5C13.2239 3 13 3.22386 13 3.5V4.5C13 4.77614 13.2239 5 13.5 5H17.59L9.15 13.44C9.05534 13.5339 9.0021 13.6617 9.0021 13.795C9.0021 13.9283 9.05534 14.0561 9.15 14.15L9.85 14.85C9.94388 14.9447 10.0717 14.9979 10.205 14.9979C10.3383 14.9979 10.4661 14.9447 10.56 14.85L19 6.42V10.5C19 10.7761 19.2239 11 19.5 11H20.5C20.7761 11 21 10.7761 21 10.5V4C20.9946 3.80811 20.9159 3.62558 20.78 3.49V3.5Z" fill="currentColor"/>
  </symbol>

</svg>
